<?xml version="1.0" standalone="no"?>
<!DOCTYPE svg PUBLIC "-//W3C//DTD SVG 20010904//EN"
 "http://www.w3.org/TR/2001/REC-SVG-20010904/DTD/svg10.dtd">
<svg version="1.0" xmlns="http://www.w3.org/2000/svg"
 width="600.000000pt" height="600.000000pt" viewBox="0 0 600.000000 600.000000"
 preserveAspectRatio="xMidYMid meet">

<g transform="translate(0.000000,600.000000) scale(0.100000,-0.100000)"
fill="#000000" stroke="none">
<path d="M1423 5285 c-33 -30 -64 -55 -67 -55 -3 0 -35 18 -71 40 -67 41 -102
49 -123 28 -19 -19 -14 -50 19 -128 l30 -72 -48 -41 c-91 -80 -98 -93 -69
-132 12 -16 23 -18 103 -12 l89 6 40 -82 c32 -68 43 -83 65 -85 37 -4 55 22
74 110 l17 76 76 7 c87 8 122 25 122 59 0 27 -15 41 -92 87 -32 18 -58 39 -58
46 0 7 7 46 17 88 15 71 15 76 -2 95 -29 32 -56 24 -122 -35z m71 -65 c-25
-107 -20 -118 65 -170 l74 -45 -86 -10 c-48 -6 -92 -16 -98 -22 -6 -6 -20 -46
-30 -88 -10 -43 -20 -79 -22 -81 -2 -2 -17 26 -32 63 -44 106 -43 105 -150 97
l-90 -7 63 54 c34 30 65 64 68 75 3 13 -8 52 -25 94 -17 40 -30 74 -28 76 2 2
32 -14 67 -36 36 -22 75 -39 87 -40 12 0 48 23 84 55 35 30 64 53 66 52 1 -2
-5 -32 -13 -67z"/>
<path d="M3220 4971 c-142 -21 -263 -161 -290 -335 -12 -74 -6 -137 30 -324
11 -57 20 -114 20 -127 0 -22 -2 -23 -30 -12 -25 9 -33 22 -50 76 -49 151
-102 220 -205 268 -52 24 -72 28 -150 28 -79 0 -97 -3 -150 -29 -32 -16 -78
-49 -101 -73 -87 -89 -111 -181 -98 -378 14 -209 9 -427 -10 -540 -37 -206
-124 -448 -220 -610 -71 -120 -128 -234 -160 -323 -84 -234 -88 -499 -10 -732
69 -208 187 -379 347 -503 332 -260 722 -354 1117 -271 254 54 586 250 760
450 191 220 325 473 360 683 15 87 7 235 -17 314 -37 126 -179 364 -288 484
-46 51 -59 74 -72 125 -9 35 -27 88 -42 118 -24 52 -26 67 -31 250 l-5 196
-32 65 c-30 61 -83 121 -141 159 -20 13 -29 49 -83 335 -33 176 -69 347 -80
380 -79 236 -208 350 -369 326z m120 -198 c74 -76 100 -153 164 -488 31 -159
53 -291 51 -294 -7 -6 -330 67 -372 84 -29 12 -32 18 -38 72 -3 32 -18 123
-33 203 -29 161 -33 265 -13 323 15 45 63 102 106 129 51 31 82 24 135 -29z
m-700 -405 c37 -19 51 -34 77 -88 18 -36 33 -70 33 -76 0 -6 -19 -19 -41 -30
-23 -10 -60 -36 -83 -59 -144 -140 -105 -347 105 -557 l72 -71 -74 -148 c-40
-82 -71 -150 -69 -152 14 -13 120 -77 127 -77 4 1 52 61 107 134 l99 134 61
-20 c33 -11 67 -22 74 -24 8 -2 -21 -38 -75 -92 -48 -49 -115 -122 -148 -163
-33 -41 -137 -167 -231 -280 -95 -113 -179 -220 -188 -237 -22 -42 -20 -114 3
-160 37 -70 141 -155 224 -182 20 -6 37 -13 37 -14 0 -1 -26 -29 -58 -62 -111
-113 -159 -257 -149 -443 3 -58 9 -114 13 -124 7 -20 29 -19 114 3 l35 9 0
143 c0 138 1 145 29 203 34 69 105 142 162 168 l40 18 66 -44 c95 -64 151 -80
258 -75 79 4 98 8 172 45 129 64 260 193 397 393 l51 74 -66 43 -67 43 -51
-75 c-243 -353 -448 -451 -630 -301 l-28 24 252 328 c282 368 326 418 389 446
110 50 241 -34 383 -246 133 -199 174 -314 165 -466 -14 -262 -230 -621 -492
-818 -249 -187 -492 -275 -755 -274 -302 1 -587 116 -809 326 -114 109 -201
265 -247 444 -23 88 -25 111 -21 247 4 126 9 165 31 240 33 107 86 224 156
340 197 327 306 778 272 1127 -23 235 -15 322 38 382 61 69 156 86 240 44z
m333 -377 c62 -27 139 -59 172 -69 66 -22 363 -88 437 -97 64 -8 135 -58 165
-114 19 -36 23 -60 23 -132 l0 -88 -47 22 c-39 18 -66 22 -138 22 -78 -1 -101
-5 -170 -34 l-80 -33 -92 11 c-165 20 -270 69 -392 186 -157 151 -193 267
-106 344 52 45 92 42 228 -18z m691 -625 c46 -19 100 -69 130 -121 14 -24 26
-45 26 -48 0 -2 -33 -4 -73 -4 -84 0 -160 -29 -233 -88 -23 -19 -160 -188
-305 -376 -283 -368 -284 -369 -376 -369 -82 1 -203 74 -203 123 0 10 69 100
153 200 84 100 187 225 229 277 42 52 118 136 170 186 196 189 368 268 482
220z"/>
</g>
</svg>
